<svg xmlns="http://www.w3.org/2000/svg" width="20.818" height="24.248" viewBox="0 0 20.818 24.248"><defs><style>.a{fill:#105642;}.b{fill:#fc476e;}.c{fill:#e3faff;}</style></defs><g transform="translate(-0.5)"><path class="a" d="M142.872,395.093a2.84,2.84,0,1,0-2.84,2.835A2.838,2.838,0,0,0,142.872,395.093Zm0,0" transform="translate(-130.218 -373.681)"/><path class="a" d="M180.556,392.258a2.84,2.84,0,0,0-.825.122,2.835,2.835,0,0,1,0,5.427,2.836,2.836,0,1,0,.825-5.549Zm0,0" transform="translate(-170.742 -373.681)"/><path class="a" d="M163.6,35.7a1.682,1.682,0,1,1,1.32-1.98A1.684,1.684,0,0,1,163.6,35.7Zm0,0" transform="translate(-153.456 -30.835)"/><path class="a" d="M187.19,33.718a1.684,1.684,0,0,0-1.983-1.318,1.721,1.721,0,0,0-.246.069,1.681,1.681,0,0,1,0,3.16,1.684,1.684,0,0,0,2.229-1.911Zm0,0" transform="translate(-175.725 -30.835)"/><path class="a" d="M16.848,106.947H2.779a2.283,2.283,0,0,1-1.422-4.066l.452-.364a4.432,4.432,0,0,0,1.653-3.452V96.674a6.4,6.4,0,0,1,12.8,0V99.11a4.432,4.432,0,0,0,1.6,3.406l.44.366a2.3,2.3,0,0,1,.829,1.767v.023A2.277,2.277,0,0,1,16.848,106.947Zm0,0" transform="translate(0 -86.009)"/><path class="a" d="M170.353,102.878l-.44-.366a4.432,4.432,0,0,1-1.6-3.406V96.67a6.4,6.4,0,0,0-8.2-6.131,6.392,6.392,0,0,1,4.6,6.131v2.436a4.432,4.432,0,0,0,1.6,3.406l.44.366a2.3,2.3,0,0,1,.829,1.767v.023a2.277,2.277,0,0,1-2.279,2.275H168.9a2.277,2.277,0,0,0,2.279-2.275v-.023A2.3,2.3,0,0,0,170.353,102.878Zm0,0" transform="translate(-152.054 -86.006)"/><path class="b" d="M219.129,5.483a5.492,5.492,0,1,0-5.492,5.483A5.488,5.488,0,0,0,219.129,5.483Zm0,0" transform="translate(-197.811 0)"/><path class="b" d="M261.667,4.223a5.487,5.487,0,0,1-4.651,9.756,5.487,5.487,0,1,0,4.651-9.756Zm0,0" transform="translate(-244.367 -4.023)"/><path class="c" d="M300.613,62.746a.383.383,0,0,1-.383-.383V58.671l-.143.13a.383.383,0,1,1-.517-.566l.785-.714A.383.383,0,0,1,301,57.8v4.559A.383.383,0,0,1,300.613,62.746Zm0,0" transform="translate(-284.787 -54.702)"/></g></svg>