<svg xmlns="http://www.w3.org/2000/svg" width="32.301" height="31.363" viewBox="0 0 32.301 31.363"><defs><style>.a{fill:#0b5640;}</style></defs><g transform="translate(-1.266 -3)"><path class="a" d="M23,46h2.163v8.111H23Z" transform="translate(-9.981 -19.748)"/><path class="a" d="M29,51.356h2.163V40L29,42.884Z" transform="translate(-12.737 -16.992)"/><path class="a" d="M35,38h2.163V50.437H35Z" transform="translate(-15.492 -16.074)"/><path class="a" d="M6.4,58.024v-3.5l-3.067,3.5Z" transform="translate(-0.947 -23.66)"/><path class="a" d="M11,54.875h2.163V47.662L11,50.134Z" transform="translate(-4.47 -20.511)"/><path class="a" d="M17,46h2.163v8.111H17Z" transform="translate(-7.226 -19.748)"/><path class="a" d="M41,37.272V49.709h2.163V36.414l-.858.858Z" transform="translate(-18.248 -15.345)"/><path class="a" d="M43.867,7a4.867,4.867,0,1,0,4.867,4.867A4.872,4.872,0,0,0,43.867,7Zm2.163,3.785H44.948v-.541H43.326a.541.541,0,1,0,0,1.081h1.081a1.622,1.622,0,0,1,0,3.244v1.081H43.326V14.57H41.7V12.948h1.081v.541h1.622a.541.541,0,1,0,0-1.081H43.326a1.622,1.622,0,0,1,0-3.244V8.081h1.081V9.163H46.03Z" transform="translate(-17.329 -1.837)"/><path class="a" d="M47,32.707V47.084h2.163V30.7c-.059.012-.121.017-.181.028Z" transform="translate(-21.003 -12.72)"/><path class="a" d="M42.03,3a7.03,7.03,0,1,0,7.03,7.03A7.038,7.038,0,0,0,42.03,3Zm0,12.978a5.948,5.948,0,1,1,5.948-5.948A5.955,5.955,0,0,1,42.03,15.978Z" transform="translate(-15.492)"/><path class="a" d="M53,45.832h2.163V27.972A8.08,8.08,0,0,1,53,29.136Z" transform="translate(-23.759 -11.468)"/><path class="a" d="M6.081,28.815H7.163V26.652H8.244V20.163H7.163V18H6.081v2.163H5v6.489H6.081Z" transform="translate(-1.715 -6.889)"/><path class="a" d="M14.081,24.733h1.081V22.57h1.081V17.163H15.163V15H14.081v2.163H13V22.57h1.081Z" transform="translate(-5.389 -5.511)"/><path class="a" d="M22.081,18.652h1.081V16.489h1.081V12.163H23.163V10H22.081v2.163H21v4.326h1.081Z" transform="translate(-9.063 -3.215)"/><path class="a" d="M24.792,30.339a8.036,8.036,0,0,1-1.173-.357l-1.091,1.091H18.181L14.4,35.4H7.915L1.266,42.6l.794.734,6.328-6.856h6.5l3.785-4.326h4.3Z" transform="translate(0 -12.392)"/></g></svg>