<svg xmlns="http://www.w3.org/2000/svg" width="24.015" height="24.015" viewBox="0 0 24.015 24.015"><defs><style>.a{fill:#4caf50;}.b{fill:#fafafa;}</style></defs><path class="a" d="M12.011,0H12A12,12,0,0,0,2.286,19.045l-1.5,4.461L5.4,22.031A12.005,12.005,0,1,0,12.011,0Z"/><path class="b" d="M121.23,128.552a3.388,3.388,0,0,1-2.356,1.695c-.627.134-1.447.24-4.206-.9-3.529-1.462-5.8-5.048-5.978-5.28a6.858,6.858,0,0,1-1.426-3.622,3.833,3.833,0,0,1,1.228-2.922,1.745,1.745,0,0,1,1.228-.431c.149,0,.282.008.4.014.353.015.53.036.762.593.29.7,1,2.421,1.079,2.6a.715.715,0,0,1,.051.65,2.075,2.075,0,0,1-.389.551c-.177.2-.345.36-.522.579-.162.191-.345.395-.141.747a10.657,10.657,0,0,0,1.948,2.421,8.828,8.828,0,0,0,2.816,1.737.759.759,0,0,0,.847-.134,14.536,14.536,0,0,0,.938-1.243.67.67,0,0,1,.862-.261c.324.113,2.04.961,2.393,1.136s.585.261.671.41A2.99,2.99,0,0,1,121.23,128.552Z" transform="translate(-102.233 -111.596)"/></svg>