<svg xmlns="http://www.w3.org/2000/svg" width="30.875" height="26.106" viewBox="0 0 30.875 26.106"><defs><style>.a{fill:#fadd05;}.b{fill:#fff;}</style></defs><path class="a" d="M30.875,39.54H0V60.38H19.109l5.922,5.266V60.38h5.844Z" transform="translate(0 -39.54)"/><path class="a" d="M271.437,39.54H256V60.38h3.671l5.922,5.266V60.38h5.844Z" transform="translate(-240.563 -39.54)"/><path class="b" d="M104.144,151.158a.382.382,0,1,1,.382-.382h1.809a2.191,2.191,0,1,0-2.191,2.191.554.554,0,1,1-.554.554h-1.809a2.363,2.363,0,1,0,2.363-2.363Z" transform="translate(-95.643 -142.009)"/><path class="b" d="M334.222,151.158a.382.382,0,1,1,.382-.382h1.809a2.191,2.191,0,1,0-2.191,2.191.554.554,0,1,1-.554.554h-1.809a2.363,2.363,0,1,0,2.363-2.363Z" transform="translate(-311.847 -142.009)"/><path class="b" d="M197.919,148.585a2.35,2.35,0,0,0-1.458.506,2.361,2.361,0,0,0-3.821,1.857v4.73h1.809v-4.73a.554.554,0,1,1,1.107,0v4.73h1.809v-4.73a.554.554,0,1,1,1.107,0v4.73h1.809v-4.73A2.365,2.365,0,0,0,197.919,148.585Z" transform="translate(-181.023 -142.009)"/><path class="b" d="M257.458,148.585a2.35,2.35,0,0,0-1.458.506v6.587h.9v-4.73a.554.554,0,1,1,1.107,0v4.73h1.809v-4.73A2.365,2.365,0,0,0,257.458,148.585Z" transform="translate(-240.563 -142.009)"/></svg>