<svg xmlns="http://www.w3.org/2000/svg" width="33.096" height="33.096" viewBox="0 0 33.096 33.096"><defs><style>.a{fill:#0b5640;}</style></defs><g transform="translate(-3 -3)"><path class="a" d="M12.7,28.757h.571a1.142,1.142,0,0,0,1.141-1.141V23.051a5.714,5.714,0,0,0-3.47-5.249,2.283,2.283,0,0,1-4.473,0A5.714,5.714,0,0,0,3,23.051v4.565a1.142,1.142,0,0,0,1.141,1.141h.571V20.768H5.853V41.31a1.141,1.141,0,1,0,2.282,0V27.045H9.277V41.31a1.141,1.141,0,1,0,2.282,0V20.768H12.7Z" transform="translate(0 -6.356)"/><ellipse class="a" cx="3" cy="3.5" rx="3" ry="3.5" transform="translate(6 3)"/><path class="a" d="M40.877,13H32.79l-9.937,9.937v2.617a2.285,2.285,0,0,1-2.282,2.282H20v5.47l6.847,6.847L43.4,23.606V15.519ZM20.64,32.332l.807-.807,1.239,1.239-.807.807Zm5.8,5.8L22.45,34.142l.807-.807,3.994,3.994ZM30.271,32.4a6.277,6.277,0,1,1,6.277-6.277A6.284,6.284,0,0,1,30.271,32.4Zm7.86-5.146-.807-.807.807-.807.807.807Zm1.614-1.614-.807-.807.807-.807.807.807Zm1.614-1.614-.807-.807.807-.807.807.807Zm-1.388-5.321a2.282,2.282,0,1,1,2.282-2.282A2.285,2.285,0,0,1,39.972,18.706Z" transform="translate(-7.299 -4.294)"/><path class="a" d="M11.02,17.114a1.135,1.135,0,0,0,2.26,0,5.678,5.678,0,0,0-2.26,0Z" transform="translate(-3.444 -6.011)"/><path class="a" d="M34.136,27a5.136,5.136,0,1,0,5.136,5.136A5.141,5.141,0,0,0,34.136,27Zm-2.853,5.706H30.141V31.565h1.141Zm2.853-1.141a1.714,1.714,0,0,1,1.712,1.712v1.712H34.706V36.13H33.565V34.884a1.71,1.71,0,0,1-1.141-1.607h1.141a.571.571,0,0,0,.571.571h.571v-.571a.571.571,0,0,0-.571-.571,1.714,1.714,0,0,1-1.712-1.712V29.282h1.141V28.141h1.141v1.246a1.71,1.71,0,0,1,1.141,1.607H34.706a.571.571,0,0,0-.571-.571h-.571v.571A.571.571,0,0,0,34.136,31.565Zm3.994,1.141H36.989V31.565H38.13Z" transform="translate(-11.164 -10.305)"/><circle class="a" cx="1" cy="1" r="1" transform="translate(32 12)"/></g></svg>