<svg xmlns="http://www.w3.org/2000/svg" width="34.681" height="34.681" viewBox="0 0 34.681 34.681"><defs><style>.a{fill:#0b5640;}</style></defs><path class="a" d="M34.213,11.39,17.956.191a1.086,1.086,0,0,0-1.23,0L.47,11.39a1.082,1.082,0,0,0-.47.893V33.236a1.446,1.446,0,0,0,1.445,1.445h2.89V17.34A1.446,1.446,0,0,1,5.78,15.9H28.9a1.446,1.446,0,0,1,1.445,1.445v17.34h2.89a1.446,1.446,0,0,0,1.445-1.445V12.283A1.084,1.084,0,0,0,34.213,11.39Z"/><path class="a" d="M10.919,19v1.084a1.084,1.084,0,1,1-2.168,0V19H6.223a.723.723,0,0,0-.723.723V25.5a.723.723,0,0,0,.723.723h7.225a.723.723,0,0,0,.723-.723v-5.78A.723.723,0,0,0,13.448,19Z" transform="translate(2.448 8.456)"/><path class="a" d="M17.919,19v1.084a1.084,1.084,0,0,1-2.168,0V19H13.223a.723.723,0,0,0-.723.723V25.5a.723.723,0,0,0,.723.723h7.225a.723.723,0,0,0,.723-.723v-5.78A.723.723,0,0,0,20.448,19Z" transform="translate(5.563 8.456)"/><path class="a" d="M14.419,13v1.084a1.084,1.084,0,0,1-2.168,0V13H9.723A.723.723,0,0,0,9,13.723V19.5a.723.723,0,0,0,.723.723h7.225a.723.723,0,0,0,.723-.723v-5.78A.723.723,0,0,0,16.948,13Z" transform="translate(4.005 5.785)"/></svg>