<svg xmlns="http://www.w3.org/2000/svg" width="32.582" height="30.5" viewBox="0 0 32.582 30.5"><defs><style>.a{fill:#0b5640;}</style></defs><g transform="translate(0 -13.385)"><g transform="translate(0 13.385)"><path class="a" d="M14.673,30.55a8.278,8.278,0,0,0,1.771-1.488l1.862,1.075L20,27.2l-1.859-1.073a8.178,8.178,0,0,0,.4-2.28l2.114-.373-.589-3.34-2.114.373a8.222,8.222,0,0,0-1.159-2l1.382-1.647-2.6-2.18L14.2,16.324a8.163,8.163,0,0,0-2.174-.794V13.385H8.634v2.146a8.164,8.164,0,0,0-2.175.794L5.078,14.679l-2.6,2.18,1.382,1.647a8.225,8.225,0,0,0-1.159,2L.589,20.135,0,23.475l2.114.373a8.18,8.18,0,0,0,.4,2.28L.657,27.2l1.7,2.937,1.862-1.075a8.278,8.278,0,0,0,1.771,1.488l-.735,2.02,3.187,1.16.734-2.017a8.221,8.221,0,0,0,2.315,0l.734,2.017,3.187-1.16Zm-4.344-2.645a4.331,4.331,0,1,1,4.331-4.331A4.336,4.336,0,0,1,10.329,27.906Z" transform="translate(0 -13.385)"/><path class="a" d="M211.247,219.485l-1.462.473a5.886,5.886,0,0,0-1.02-1.305l.817-1.3-2.057-1.289-.817,1.3a5.833,5.833,0,0,0-1.62-.348l-.212-1.521-2.4.335.212,1.521a5.842,5.842,0,0,0-1.463.778l-1.141-1.03-1.627,1.8,1.142,1.031a5.885,5.885,0,0,0-.624,1.534l-1.536-.056-.088,2.426,1.536.056a5.856,5.856,0,0,0,.51,1.577l-1.212.945,1.492,1.915,1.214-.946a5.941,5.941,0,0,0,1.4.88l-.322,1.5,2.374.507.321-1.5a5.9,5.9,0,0,0,1.641-.229l.72,1.357,2.145-1.137-.721-1.359a5.936,5.936,0,0,0,1.109-1.23l1.426.578.912-2.25-1.424-.577a5.879,5.879,0,0,0,.059-1.656l1.462-.473Zm-6.138,6.472a3.1,3.1,0,1,1,2.643-3.5A3.1,3.1,0,0,1,205.108,225.957Z" transform="translate(-181.997 -199.773)"/><path class="a" d="M281.853,76.109l.057-1.916-1.212-.036a4.648,4.648,0,0,0-.411-1.242l.952-.752-1.188-1.5-.952.752a4.644,4.644,0,0,0-1.114-.686l.246-1.189-1.876-.389-.247,1.189a4.6,4.6,0,0,0-1.294.188l-.575-1.068-1.688.909.575,1.068a4.617,4.617,0,0,0-.869.977l-1.128-.449-.709,1.781,1.129.45a4.644,4.644,0,0,0-.04,1.307l-1.152.381.6,1.82,1.152-.381a4.622,4.622,0,0,0,.811,1.027l-.637,1.032,1.631,1.007.639-1.034a4.685,4.685,0,0,0,1.28.266l.175,1.2,1.9-.277-.175-1.2a4.654,4.654,0,0,0,1.152-.62l.906.807,1.275-1.431-.907-.808a4.692,4.692,0,0,0,.482-1.215Zm-4.567,1.027a2.448,2.448,0,1,1,.994-3.315A2.45,2.45,0,0,1,277.286,77.135Z" transform="translate(-249.328 -64.81)"/></g></g></svg>