<svg xmlns="http://www.w3.org/2000/svg" width="55.161" height="55.217" viewBox="0 0 55.161 55.217"><defs><style>.a{fill:#0b5640;}</style></defs><g transform="translate(0 -0.01)"><path class="a" d="M96.449,43.55a7.807,7.807,0,0,0-5.373,2.138l-.362.362L64.83,72.022V51.243a7.822,7.822,0,0,0-7.7-7.693h-.28a7.822,7.822,0,0,0-7.677,7.822V90.917a7.817,7.817,0,0,0,13.206,5.694l.3-.3,39.235-39.235.192-.186a7.858,7.858,0,0,0-5.653-13.34Z" transform="translate(-49.17 -43.54)"/><circle class="a" cx="8.635" cy="8.635" r="8.635" transform="translate(37.878 37.94)"/></g></svg>